<svg width="1080" height="768" viewBox="0 0 1080 768" fill="none" xmlns="http://www.w3.org/2000/svg">
<rect width="1080" height="767.711" fill="white"/>
<ellipse cx="263.25" cy="183.681" rx="9" ry="8.99661" fill="#C19CFC"/>
<path d="M1030.25 692.616C1030.25 701.729 1022.71 709.24 1013.25 709.24C1003.79 709.24 996.25 701.729 996.25 692.616C996.25 683.503 1003.79 675.992 1013.25 675.992C1022.71 675.992 1030.25 683.503 1030.25 692.616Z" stroke="#E40173" stroke-width="8"/>
<path d="M915.833 304.867L931.2 300.751L927.083 285.389L942.45 281.273L938.333 265.911L953.7 261.794" stroke="#00A7E5" stroke-width="8" stroke-linecap="round" stroke-linejoin="round"/>
<path d="M841.456 147.53C844.143 143.686 847.727 140.554 851.896 138.406C856.066 136.258 860.697 135.157 865.388 135.2C870.079 135.243 874.689 136.427 878.819 138.651C882.949 140.875 886.474 144.071 889.091 147.964" stroke="#E2A21F" stroke-width="8"/>
<rect x="123.75" y="634.261" width="30" height="29.9887" fill="#D9DBE9"/>
<path d="M272.25 46.7323L287.839 73.7222H256.662L272.25 46.7323Z" fill="#00CC67"/>
<path d="M107 296L131.249 310V338L107 352L82.7513 338V310L107 296Z" fill="#D9DBE9"/>
</svg>
